<svg xmlns="http://www.w3.org/2000/svg" enable-background="new 0 0 50 50" viewBox="0 0 50 50"><path d="M24.3141,5.9217c-1.1045,0-2,0.8955-2,2v1.0835c0,3.0571-2.331,5.5801-5.3088,5.8854h-6.6319
			c-2.9783-0.3052-5.3093-2.8283-5.3093-5.8854V7.9217c0-2.6419-4-2.6449-4,0v1.0835c0,4.4979,3.0131,8.3001,7.1251,9.5096v11.2928
			c-0.0042,0.0524-0.0157,0.1027-0.0157,0.1561v16c0,1.1045,0.8955,2,2,2s2-0.8955,2-2V30.9219h2.9585v15.0419
			c0,1.1045,0.8955,2,2,2s2-0.8955,2-2V30.9219h0.0573v-12.407c4.1119-1.2095,7.1249-5.0116,7.1249-9.5096V7.9217
			C26.3141,6.8173,25.4186,5.9217,24.3141,5.9217z"/><path d="M13.6893 12.9219c2.2091 0 4-1.7909 4-4 0-2.2092-1.7909-4-4-4C8.4061 4.9219 8.3991 12.9219 13.6893 12.9219zM6.06 8.736v.27M4 17.366H2.26v-.5C1.8611 16.8992 1.3929 16.8715 1 16.736v4.72h6.19v-2.22C6.01 18.796 4.94 18.166 4 17.366zM47.52 17.366v-1.33h-1.18v-3.24H45.1v3.24h-1.17v-1.97h-2.51v1.97H40.3v-9.69h-.62v-2.81h-.96v-1.5h-2.7v1.5h-.96v2.81h-.61v11.02h-.92v-7.93H27.29c-.06 1.73-.54 3.39-1.37 4.85.22.16.36.43.36.75 0 .52-.4.94-.89.94-.18 0-.35-.05-.49-.15-1.22 1.51-2.83 2.71-4.71 3.41v2.22H49v-4.09H47.52zM28.2 15.976c-.51 0-.92-.42-.92-.94 0-.53.41-.94.92-.94.49 0 .89.41.89.94C29.09 15.556 28.69 15.976 28.2 15.976zM28.2 12.956c-.51 0-.92-.42-.92-.93 0-.54.41-.96.92-.96.49 0 .89.42.89.96C29.09 12.536 28.69 12.956 28.2 12.956zM30.98 15.976c-.5 0-.89-.42-.89-.94 0-.53.39-.94.89-.94s.92.41.92.94C31.9 15.556 31.48 15.976 30.98 15.976zM30.98 12.956c-.5 0-.89-.42-.89-.93 0-.54.39-.96.89-.96s.92.42.92.96C31.9 12.536 31.48 12.956 30.98 12.956zM36.34 16.576h-1.06v-8.12h1.06V16.576zM37.89 16.576h-1.03v-8.12h1.03V16.576zM39.46 16.576h-1.05v-8.12h1.05V16.576z"/><rect width="2.259" height="3.54" x="30.459" y="4.81"/><path d="M1.355,16.756"/></svg>